<?xml version="1.0" standalone="no"?>
<!DOCTYPE svg PUBLIC "-//W3C//DTD SVG 20010904//EN"
 "http://www.w3.org/TR/2001/REC-SVG-20010904/DTD/svg10.dtd">
<svg version="1.0" xmlns="http://www.w3.org/2000/svg"
 width="260.000000pt" height="260.000000pt" viewBox="0 0 260.000000 260.000000"
 preserveAspectRatio="xMidYMid meet">
<metadata>
Created by potrace 1.11, written by Peter Selinger 2001-2013
</metadata>
<g transform="translate(0.000000,260.000000) scale(0.100000,-0.100000)"
fill="#000000" stroke="none">
<path d="M1602 2059 c-13 -5 -40 -11 -59 -13 -58 -8 -183 -77 -241 -134 -40
-39 -47 -43 -71 -33 -25 10 -96 29 -136 37 -75 15 -234 20 -285 9 -14 -3 -45
-8 -70 -11 -103 -10 -120 -14 -162 -32 -24 -11 -69 -30 -101 -42 -52 -20 -99
-49 -158 -97 -31 -25 -118 -113 -113 -113 3 0 -7 -12 -21 -26 -38 -38 -75
-100 -110 -186 -25 -61 -31 -90 -30 -135 3 -70 10 -137 21 -195 9 -49 8 -47
17 -70 11 -28 18 -53 17 -53 -4 0 56 -104 75 -130 72 -98 258 -245 310 -245 8
0 15 -4 15 -10 0 -5 7 -10 15 -10 8 0 23 -4 33 -10 16 -9 110 -36 162 -46 59
-12 247 -10 318 3 105 19 101 18 108 26 4 4 13 7 21 7 7 0 30 7 51 17 20 9 39
17 42 18 24 8 60 30 60 37 0 5 5 6 11 2 6 -3 24 6 40 22 16 15 29 25 29 21 0
-3 12 5 26 18 15 14 31 25 35 25 5 0 47 -18 93 -40 102 -49 220 -79 318 -83
74 -3 126 3 233 27 6 1 28 11 50 21 22 10 47 19 55 21 8 2 16 8 18 13 2 6 10
11 18 11 8 0 14 5 14 12 0 6 3 8 6 5 6 -6 83 52 124 93 45 46 147 221 155 267
22 127 22 266 0 368 -8 39 -17 81 -19 95 -7 44 -32 93 -82 162 -27 37 -62 85
-78 108 -37 53 -215 170 -351 231 l-100 44 -140 1 c-77 1 -151 -2 -163 -7z
m204 -625 c33 -14 69 -56 97 -111 20 -38 10 -48 -37 -39 -37 7 -65 34 -91 86
-10 19 -21 37 -25 40 -4 3 -11 16 -15 28 -6 22 -5 23 17 17 12 -4 37 -13 54
-21z m-825 -84 c21 -6 39 -16 39 -23 0 -11 -125 -81 -134 -74 -1 1 -9 -3 -17
-8 -29 -22 -172 1 -183 30 -10 27 71 73 154 88 32 6 90 0 141 -13z"/>
</g>
</svg>
